<svg width="32" height="32" viewBox="0 0 32 32" fill="none" xmlns="http://www.w3.org/2000/svg">
  <path d="M16 2C16 2 12 6 12 12C12 16 14 18 16 18C18 18 20 16 20 12C20 6 16 2 16 2Z" fill="#22c55e"/>
  <path d="M16 18C16 18 20 22 20 28C20 30 18 30 16 30C14 30 12 30 12 28C12 22 16 18 16 18Z" fill="#16a34a"/>
  <path d="M8 14C8 14 4 18 4 24C4 26 6 26 8 26C10 26 12 26 12 24C12 18 8 14 8 14Z" fill="#22c55e"/>
  <path d="M24 14C24 14 28 18 28 24C28 26 26 26 24 26C22 26 20 26 20 24C20 18 24 14 24 14Z" fill="#22c55e"/>
  <path d="M16 8L16 4" stroke="#16a34a" stroke-width="2" stroke-linecap="round"/>
  <path d="M16 8L16 4" stroke="#16a34a" stroke-width="2" stroke-linecap="round"/>
  <path d="M12 6L10 4" stroke="#16a34a" stroke-width="2" stroke-linecap="round"/>
  <path d="M20 6L22 4" stroke="#16a34a" stroke-width="2" stroke-linecap="round"/>
</svg>
